<?xml version="1.0" encoding="UTF-8" standalone="no"?>
<svg
   viewBox="0 0 64 64"
   width="64"
   height="64"
   version="1.1"
   id="svg1"
   sodipodi:docname="favicon.svg"
   inkscape:version="1.4 (e7c3feb1, 2024-10-09)"
   inkscape:export-filename="favicon.jpg"
   inkscape:export-xdpi="96"
   inkscape:export-ydpi="96"
   xmlns:inkscape="http://www.inkscape.org/namespaces/inkscape"
   xmlns:sodipodi="http://sodipodi.sourceforge.net/DTD/sodipodi-0.dtd"
   xmlns="http://www.w3.org/2000/svg"
   xmlns:svg="http://www.w3.org/2000/svg">
  <defs
     id="defs1" />
  <sodipodi:namedview
     id="namedview1"
     pagecolor="#ffffff"
     bordercolor="#000000"
     borderopacity="0.25"
     inkscape:showpageshadow="2"
     inkscape:pageopacity="0.0"
     inkscape:pagecheckerboard="0"
     inkscape:deskcolor="#d1d1d1"
     inkscape:zoom="12.890625"
     inkscape:cx="32.038788"
     inkscape:cy="32"
     inkscape:window-width="1920"
     inkscape:window-height="1022"
     inkscape:window-x="0"
     inkscape:window-y="30"
     inkscape:window-maximized="1"
     inkscape:current-layer="svg1" />
  <rect
     width="64"
     height="64"
     rx="12"
     fill="#000000"
     id="rect1"
     x="0"
     y="0"
     style="stroke-width:2" />
  <path
     d="M 32.453082,45.809964 H 26.410268 L 24.008156,39.560718 H 13.010984 l -2.270747,6.249246 H 4.8475552 L 15.563229,18.298269 h 5.873915 z M 22.225338,34.925392 18.434504,24.716412 14.718736,34.925392 Z M 34.41819,45.809964 V 18.298269 h 11.691532 q 4.410128,0 6.399378,0.75066 2.008016,0.731893 3.209072,2.627311 1.201056,1.895416 1.201056,4.335062 0,3.096472 -1.82035,5.123256 -1.820352,2.008016 -5.442288,2.533478 1.801586,1.050924 2.965108,2.30828 1.18229,1.257354 3.17154,4.466428 l 3.359204,5.36722 H 52.5091 L 48.493068,39.823448 Q 46.353686,36.614376 45.565494,35.78865 44.7773,34.944158 43.895274,34.643894 43.013248,34.324862 41.099066,34.324862 h -1.125992 v 11.485102 z m 5.554884,-15.876462 h 4.109866 q 3.997264,0 4.99189,-0.337798 0.994624,-0.337798 1.55762,-1.163524 0.562994,-0.825726 0.562994,-2.064314 0,-1.388722 -0.75066,-2.233214 -0.731894,-0.86326 -2.083082,-1.088458 -0.675594,-0.09384 -4.053564,-0.09384 h -4.335064 z"
     id="text1"
     style="font-weight:600;font-size:19.2169px;font-family:Geist, Arial, sans-serif;letter-spacing:-0.5;text-anchor:middle;fill:#00e5c8;stroke-width:2.95644"
     aria-label="AR" />
</svg>
